<svg width="24" height="24" viewBox="0 0 24 24" fill="none" xmlns="http://www.w3.org/2000/svg">
<path d="M21.8906 3.77835H2.10938C0.946266 3.77835 0 4.72462 0 5.88773V18.1119C0 19.275 0.946266 20.2213 2.10938 20.2213H21.8906C23.0537 20.2213 24 19.275 24 18.1119V5.88773C24 4.72462 23.0537 3.77835 21.8906 3.77835ZM21.6153 5.1846L21.3338 5.41902L12.8369 12.4944C12.3519 12.8982 11.648 12.8982 11.1631 12.4944L2.6662 5.41902L2.38467 5.1846H21.6153ZM1.40625 6.19982L8.32931 11.9646L1.40625 16.5721V6.19982ZM21.8906 18.815H2.10938C1.76962 18.815 1.48547 18.5728 1.42036 18.252L9.45684 12.9035L10.2633 13.575C10.7664 13.994 11.3833 14.2035 12 14.2035C12.6168 14.2035 13.2336 13.994 13.7368 13.575L14.5433 12.9035L22.5797 18.2519C22.5145 18.5728 22.2304 18.815 21.8906 18.815ZM22.5938 16.5721L15.6707 11.9647L22.5938 6.19982V16.5721Z" fill="#6A75CA"/>
</svg>
