<svg width="18" height="24" viewBox="0 0 18 24" fill="none" xmlns="http://www.w3.org/2000/svg">
<path d="M0.0862935 1.03562L1.73671 3.79209C1.85156 3.98462 2.06473 4.09562 2.28892 4.08123C4.26461 3.9531 13.6307 3.55776 13.7538 7.60236C13.8597 11.0954 9.57621 11.8087 7.62046 11.9525C7.18585 11.9847 6.93141 12.4562 7.14322 12.8357L13.0325 23.3977C13.1377 23.5869 13.3378 23.704 13.5551 23.704H17.0416C17.5037 23.704 17.7912 23.2038 17.5574 22.8064L13.3309 15.6367C13.1583 15.3435 13.2656 14.9646 13.5682 14.8077C14.8782 14.1287 17.9734 12.0533 17.8111 7.67088C17.6096 2.25387 13.6081 -0.682803 0.562165 0.135984C0.115864 0.164076 -0.142702 0.653292 0.0862935 1.03562Z" fill="#6A75CA"/>
</svg>
