<svg width="24" height="24" viewBox="0 0 24 24" fill="none" xmlns="http://www.w3.org/2000/svg">
<path fill-rule="evenodd" clip-rule="evenodd" d="M6 0C2.68629 0 0 2.68629 0 6V18C0 21.3137 2.68629 24 6 24H18C21.3137 24 24 21.3137 24 18V6C24 2.68629 21.3137 0 18 0H6ZM20.0784 6.61075C20.9253 6.50413 21.7377 6.28455 22.5 5.95329C21.9286 6.79605 21.2277 7.5284 20.3936 8.11479C20.4026 8.29121 20.409 8.4689 20.409 8.65294C20.409 14.1538 16.1809 20.4999 8.44725 20.4999C6.06797 20.4999 3.86166 19.8209 2 18.6316C2.33056 18.6735 2.66112 18.6887 3.00578 18.6887C4.97122 18.6887 6.78675 18.0211 8.21663 16.9131C6.37931 16.8737 4.83413 15.6616 4.28959 14.0129C4.54456 14.0687 4.81619 14.084 5.08525 14.084C5.47219 14.084 5.84503 14.0396 6.18712 13.9469C4.27678 13.5598 2.82 11.8793 2.82 9.85617V9.81048C3.38119 10.1164 4.04359 10.3106 4.71881 10.3232C3.60156 9.58328 2.85203 8.30517 2.85203 6.86332C2.85203 6.09544 3.06472 5.38213 3.42731 4.75894C5.50422 7.28598 8.59587 8.94486 12.0898 9.11367C12.0207 8.81159 11.9925 8.49429 11.9925 8.16428C11.9925 5.87079 13.8657 3.99994 16.1924 3.99994C17.3917 3.99994 18.491 4.50382 19.2623 5.3174C20.2181 5.12829 21.115 4.7894 21.9273 4.30963C21.6147 5.28567 20.9497 6.09544 20.0784 6.61075Z" fill="#6A75CA"/>
</svg>
