<svg width="218" height="23" viewBox="0 0 218 23" fill="none" xmlns="http://www.w3.org/2000/svg">
<path d="M182.261 13.5218C133.652 13.5218 84.9178 12.3485 36.3343 14.346C33.5329 14.4611 15.8507 15.2814 10.3571 16.7155C9.92919 16.8273 9.22953 17.7508 9.62193 17.9776C11.235 18.91 13.111 19.0977 14.902 19.3427C50.9603 24.2743 88.3242 21.5685 124.291 17.4882C154.741 14.034 184.994 8.21944 215.056 1.72542C217.326 1.23496 217.968 1.0151 215.011 1.00424C202.326 0.957688 189.642 1.30495 176.959 1.51937C126.782 2.36761 76.6134 3.57173 26.4425 4.76465C17.9618 4.9663 9.48251 5.17675 1 5.17675" stroke="#6A75CA" stroke-width="2" stroke-linecap="round"/>
</svg>
